<svg fill="#FFFFFF" xmlns="http://www.w3.org/2000/svg"  viewBox="0 0 50 50" width="50px" height="50px"><path d="M 16 3 C 9.9365932 3 5 7.9365932 5 14 L 5 32 C 5 38.063407 9.9365932 43 16 43 L 21.207031 43 L 24.162109 47.544922 A 1.0001 1.0001 0 0 0 25.857422 47.513672 L 28.566406 43 L 34 43 C 40.063407 43 45 38.063407 45 32 L 45 14 C 45 7.9365932 40.063407 3 34 3 L 16 3 z M 16 5 L 34 5 C 38.982593 5 43 9.0174068 43 14 L 43 32 C 43 36.982593 38.982593 41 34 41 L 28 41 A 1.0001 1.0001 0 0 0 27.142578 41.486328 L 24.966797 45.113281 L 22.587891 41.455078 A 1.0001 1.0001 0 0 0 21.75 41 L 16 41 C 11.017407 41 7 36.982593 7 32 L 7 14 C 7 9.0174068 11.017407 5 16 5 z M 20 9 L 20 12 L 17 12 L 17 15 L 20 15 L 20 19 L 17 19 L 17 22 L 20 22 L 20 25 L 23 25 L 23 22 L 27 22 L 27 25 L 30 25 L 30 22 L 33 22 L 33 19 L 30 19 L 30 15 L 33 15 L 33 12 L 30 12 L 30 9 L 27 9 L 27 12 L 23 12 L 23 9 L 20 9 z M 23 15 L 27 15 L 27 19 L 23 19 L 23 15 z M 12.701172 26.001953 C 12.384637 25.990832 12.061813 26.071281 11.773438 26.253906 C 11.001437 26.741906 10.768 27.770781 11.25 28.550781 C 11.438 28.854781 15.956 36 25 36 C 34.044 36 38.562047 28.853781 38.748047 28.550781 C 39.229047 27.772781 38.995516 26.750719 38.228516 26.261719 C 37.462516 25.772719 36.444031 26.004297 35.957031 26.779297 C 35.807031 27.020297 32.177047 32.667969 24.998047 32.667969 C 17.831047 32.667969 14.203016 27.036297 14.041016 26.779297 C 13.739141 26.293672 13.22873 26.020488 12.701172 26.001953 z"/></svg>